<svg width="1366" height="768" viewBox="0 0 1366 768" fill="none" xmlns="http://www.w3.org/2000/svg">
<g clip-path="url(#clip0_206_40)">
<path d="M1346.96 832.631L1317.53 813.941C1288.36 795.302 1229.51 757.921 1200.16 699.344C1170.81 640.767 1170.74 560.679 1132.17 508.801C1093.74 456.818 1016.74 432.626 954.249 398.124C891.762 363.621 843.569 318.494 813.068 260.754C782.423 203.119 769.386 132.452 758.768 60.2675C748.151 -11.9171 739.724 -85.9336 735.769 -122.889L731.556 -159.898L1104.72 -431L1123.78 -404.773C1142.72 -378.703 1180.82 -326.249 1218.82 -273.952C1256.81 -221.656 1294.92 -169.202 1332.91 -116.905C1370.9 -64.6079 1409.01 -12.154 1447 40.1429C1485 92.4398 1523.1 144.894 1561.1 197.191C1599.09 249.487 1637.2 301.941 1675.19 354.238C1713.18 406.535 1751.29 458.989 1770.23 485.059L1789.28 511.286L1346.96 832.631Z" fill="#75369A"/>
<path d="M1416.12 782.388L1375.88 771.548C1335.91 760.76 1255.44 739.08 1223.21 682.597C1190.98 626.113 1206.76 534.511 1170.35 481.063C1134.09 427.51 1045.55 411.692 991.277 371.223C936.859 330.859 916.618 265.425 889.143 205.487C861.668 145.549 827.018 90.5832 795.941 33.262C764.864 -24.0591 737.419 -84.2588 723.666 -114.097L709.944 -144.197L1104.72 -431L1123.78 -404.773C1142.72 -378.703 1180.82 -326.249 1218.82 -273.952C1256.81 -221.656 1294.92 -169.202 1332.91 -116.905C1370.9 -64.6079 1409.01 -12.1539 1447 40.1429C1485 92.4398 1523.1 144.894 1561.1 197.191C1599.09 249.487 1637.2 301.941 1675.19 354.238C1713.18 406.535 1751.29 458.989 1770.23 485.059L1789.28 511.286L1416.12 782.388Z" fill="#78359F"/>
<path d="M1384.42 805.416L1368.25 777.096C1352.19 748.932 1319.84 692.292 1295.83 629.841C1271.67 567.496 1255.75 498.923 1223.66 442.334C1191.72 385.641 1143.53 340.514 1084.64 303.395C1025.76 266.275 955.952 236.85 914.789 186.855C873.77 136.757 861.021 65.8804 838.157 2.59294C815.292 -60.6946 782.084 -116.707 765.449 -144.452L748.845 -172.458L1104.72 -431L1123.78 -404.773C1142.72 -378.703 1180.82 -326.249 1218.82 -273.952C1256.81 -221.655 1294.92 -169.202 1332.91 -116.905C1370.9 -64.6079 1409.01 -12.1539 1447 40.1429C1485 92.4398 1523.1 144.894 1561.1 197.191C1599.09 249.487 1637.2 301.941 1675.19 354.238C1713.18 406.535 1751.29 458.989 1770.23 485.059L1789.28 511.286L1384.42 805.416Z" fill="#7A35A4"/>
<path d="M1473.75 740.519L1450.08 717.642C1426.68 694.817 1379.35 649.062 1329.11 605.662C1278.87 562.262 1225.49 520.904 1199.02 460.233C1172.56 399.562 1172.77 319.266 1133.92 267.597C1094.92 216.033 1016.47 192.887 955.708 157.128C894.806 121.474 851.512 72.7888 823.605 13.1648C795.697 -46.4591 782.948 -117.335 776.832 -152.721L770.457 -188.159L1104.72 -431L1123.78 -404.773C1142.72 -378.703 1180.82 -326.249 1218.82 -273.952C1256.81 -221.656 1294.92 -169.202 1332.91 -116.905C1370.9 -64.6079 1409.01 -12.1539 1447 40.1429C1485 92.4398 1523.1 144.894 1561.1 197.191C1599.09 249.487 1637.2 301.941 1675.19 354.238C1713.18 406.535 1751.29 458.989 1770.23 485.059L1789.28 511.286L1473.75 740.519Z" fill="#7D34A9"/>
<path d="M1414.67 783.435L1416.22 742.24C1418.03 701.097 1421.13 618.707 1387.46 563.27C1353.79 507.833 1283.12 479.035 1227.98 439.194C1172.99 399.248 1133.44 347.841 1096.6 294.707C1059.9 241.468 1025.54 186.293 1005.42 121.016C985.144 55.8447 978.735 -19.6371 955.582 -82.7153C932.573 -145.898 892.449 -196.887 872.645 -222.329L852.583 -247.823L1104.72 -431L1123.78 -404.773C1142.72 -378.703 1180.82 -326.249 1218.82 -273.952C1256.81 -221.655 1294.92 -169.202 1332.91 -116.905C1370.9 -64.6078 1409.01 -12.1539 1447 40.1429C1485 92.4398 1523.1 144.894 1561.1 197.191C1599.09 249.487 1637.2 301.941 1675.19 354.238C1713.18 406.535 1751.29 458.989 1770.23 485.059L1789.28 511.286L1414.67 783.435Z" fill="#8033AE"/>
<path d="M1457.9 752.033L1439.85 725.073C1421.78 698.375 1385.69 644.456 1352.45 588.705C1319.21 532.954 1288.88 474.848 1267.17 410.723C1245.46 346.598 1232.42 275.931 1206.39 214.946C1180.35 153.962 1141.38 102.136 1094.03 56.6426C1046.67 11.1495 990.694 -28.325 942.903 -73.5042C895.113 -118.683 854.988 -169.672 835.184 -195.114L815.122 -220.608L1104.72 -431L1123.78 -404.773C1142.72 -378.703 1180.82 -326.249 1218.82 -273.952C1256.81 -221.656 1294.92 -169.202 1332.91 -116.905C1370.9 -64.6079 1409.01 -12.154 1447 40.1429C1485 92.4398 1523.1 144.894 1561.1 197.191C1599.09 249.487 1637.2 301.941 1675.19 354.238C1713.18 406.535 1751.29 458.989 1770.23 485.059L1789.28 511.286L1457.9 752.033Z" fill="#8332B3"/>
<path d="M1571.72 669.342L1543.3 649.918C1515 630.652 1458.16 591.806 1422.62 537.729C1386.93 483.758 1372.45 414.138 1346.71 352.944C1320.96 291.749 1283.72 238.668 1232.04 196.315C1180.35 153.962 1114.01 122.024 1069.68 74.3323C1025.49 26.5364 1003.23 -37.4316 980.364 -100.719C957.499 -164.007 933.8 -226.928 922.065 -258.231L910.215 -289.692L1104.72 -431L1123.78 -404.773C1142.72 -378.703 1180.82 -326.249 1218.82 -273.952C1256.81 -221.656 1294.92 -169.202 1332.91 -116.905C1370.9 -64.6079 1409.01 -12.154 1447 40.1429C1485 92.4398 1523.1 144.894 1561.1 197.191C1599.09 249.487 1637.2 301.941 1675.19 354.238C1713.18 406.535 1751.29 458.989 1770.23 485.059L1789.28 511.286L1571.72 669.342Z" fill="#8530B7"/>
<path d="M1554.43 681.902L1546.62 647.511C1539.06 613.172 1523.43 544.389 1490.05 488.743C1456.66 433.096 1405.01 390.482 1361.55 342.162C1318.08 293.843 1282.28 239.714 1244.14 187.522C1205.86 135.435 1164.87 85.0741 1133.07 28.2764C1101.42 -28.6261 1078.58 -92.1753 1038.72 -143.111C998.851 -194.048 941.437 -232.475 912.988 -251.637L884.281 -270.851L1104.72 -431L1123.78 -404.773C1142.72 -378.703 1180.82 -326.249 1218.82 -273.952C1256.81 -221.655 1294.92 -169.202 1332.91 -116.905C1370.9 -64.6079 1409.01 -12.1539 1447 40.1429C1485 92.4398 1523.1 144.894 1561.1 197.191C1599.09 249.487 1637.2 301.941 1675.19 354.238C1713.18 406.535 1751.29 458.989 1770.23 485.059L1789.28 511.286L1554.43 681.902Z" fill="#882FBC"/>
<path d="M1619.27 634.8L1595.17 612.236C1571.19 589.83 1523 544.703 1490.48 488.429C1458.11 432.049 1441.03 364.313 1410.24 306.783C1379.46 249.252 1334.72 201.613 1292.84 152.143C1250.95 102.672 1211.98 50.8461 1169.38 1.89874C1126.78 -47.0486 1080.6 -93.6408 1046.64 -148.869C1012.68 -204.096 991 -268.483 980.129 -300.414L969.288 -332.608L1104.72 -431L1123.78 -404.773C1142.72 -378.703 1180.82 -326.249 1218.82 -273.952C1256.81 -221.656 1294.92 -169.202 1332.91 -116.905C1370.9 -64.6079 1409.01 -12.154 1447 40.1429C1485 92.4397 1523.1 144.894 1561.1 197.191C1599.09 249.487 1637.2 301.941 1675.19 354.238C1713.18 406.535 1751.29 458.989 1770.23 485.059L1789.28 511.286L1619.27 634.8Z" fill="#8B2EC1"/>
<path d="M1674.02 595.024L1653.81 569.634C1633.58 544.507 1593.16 493.727 1555.89 440.907C1518.62 388.087 1484.26 332.912 1445.54 281.138C1406.83 229.365 1363.54 180.679 1317.76 134.034C1272.13 87.2852 1223.94 42.1583 1180.62 -6.26565C1137.44 -54.7943 1098.75 -106.83 1069.41 -165.407C1040.06 -223.984 1019.82 -289.417 1009.67 -321.872L999.545 -354.589L1104.72 -431L1123.78 -404.773C1142.72 -378.703 1180.82 -326.249 1218.82 -273.952C1256.81 -221.655 1294.92 -169.202 1332.91 -116.905C1370.9 -64.6078 1409.01 -12.1539 1447 40.1429C1485 92.4398 1523.1 144.894 1561.1 197.191C1599.09 249.487 1637.2 301.941 1675.19 354.238C1713.18 406.535 1751.29 458.989 1770.23 485.059L1789.28 511.286L1674.02 595.024Z" fill="#8E2CC6"/>
<path d="M1689.87 583.51L1678.02 552.049C1666.28 520.746 1642.58 457.825 1602 407.412C1561.27 357.104 1503.56 318.885 1464.56 267.321C1425.56 215.757 1405.32 150.324 1373.23 93.7353C1341.29 37.0422 1297.42 -11.2248 1258.28 -62.6843C1218.99 -114.039 1184.34 -169.005 1149.66 -223.71C1114.98 -278.414 1080.33 -333.38 1062.98 -360.601L1045.65 -388.084L1104.72 -431L1123.78 -404.773C1142.72 -378.703 1180.82 -326.249 1218.82 -273.952C1256.81 -221.656 1294.92 -169.202 1332.91 -116.905C1370.9 -64.6079 1409.01 -12.154 1447 40.1429C1485 92.4398 1523.1 144.894 1561.1 197.191C1599.09 249.487 1637.2 301.941 1675.19 354.238C1713.18 406.535 1751.29 458.989 1770.23 485.059L1789.28 511.286L1689.87 583.51Z" fill="#902BCB"/>
<path d="M1746.06 542.688L1724.84 518.031C1703.74 493.531 1661.31 444.217 1622.31 392.653C1583.46 340.984 1547.65 286.856 1510.24 234.14C1472.68 181.529 1433.13 130.122 1398.3 75.5223C1363.34 21.0273 1333.01 -37.0789 1295.45 -89.6898C1257.89 -142.301 1213.15 -189.94 1168.68 -237.526C1124.2 -285.113 1079.75 -332.961 1057.79 -356.833L1035.57 -380.757L1104.72 -431L1123.78 -404.773C1142.72 -378.703 1180.82 -326.249 1218.82 -273.952C1256.81 -221.655 1294.92 -169.202 1332.91 -116.905C1370.9 -64.6078 1409.01 -12.1539 1447 40.143C1485 92.4398 1523.1 144.894 1561.1 197.191C1599.09 249.487 1637.2 301.941 1675.19 354.238C1713.18 406.535 1751.29 458.989 1770.23 485.059L1789.28 511.286L1746.06 542.688Z" fill="#9329D0"/>
</g>
<defs>
<clipPath id="clip0_206_40">
<rect width="1602.8" height="1164.7" fill="white" transform="translate(-192 511.054) rotate(-35.998)"/>
</clipPath>
</defs>
</svg>
