<svg width="1366" height="768" viewBox="0 0 1366 768" fill="none" xmlns="http://www.w3.org/2000/svg">
<g clip-path="url(#clip0_228_122)">
<path d="M1316.5 824.631L1287.07 805.941C1257.9 787.302 1199.05 749.921 1169.7 691.344C1140.35 632.767 1140.28 552.679 1101.71 500.801C1063.29 448.818 986.28 424.626 923.793 390.124C861.307 355.621 813.114 310.494 782.613 252.754C751.968 195.119 738.931 124.452 728.313 52.2676C717.695 -19.9171 709.269 -93.9336 705.314 -130.889L701.1 -167.898L1074.27 -439L1093.32 -412.773C1112.26 -386.703 1150.37 -334.249 1188.36 -281.952C1226.36 -229.655 1264.46 -177.202 1302.46 -124.905C1340.45 -72.6078 1378.56 -20.1539 1416.55 32.143C1454.54 84.4398 1492.65 136.894 1530.64 189.191C1568.63 241.487 1606.74 293.941 1644.73 346.238C1682.73 398.535 1720.84 450.989 1739.77 477.059L1758.83 503.286L1316.5 824.631Z" fill="#75369A"/>
<path d="M1385.66 774.388L1345.43 763.548C1305.45 752.76 1224.98 731.08 1192.75 674.597C1160.52 618.113 1176.3 526.511 1139.9 473.063C1103.63 419.51 1015.1 403.692 960.822 363.223C906.404 322.859 886.163 257.425 858.688 197.487C831.212 137.549 796.563 82.5832 765.486 25.2621C734.409 -32.0591 706.964 -92.2588 693.211 -122.097L679.489 -152.197L1074.27 -439L1093.32 -412.773C1112.26 -386.703 1150.37 -334.249 1188.36 -281.952C1226.36 -229.655 1264.46 -177.202 1302.46 -124.905C1340.45 -72.6078 1378.56 -20.1539 1416.55 32.143C1454.54 84.4398 1492.65 136.894 1530.64 189.191C1568.63 241.487 1606.74 293.941 1644.74 346.238C1682.73 398.535 1720.84 450.989 1739.77 477.059L1758.83 503.286L1385.66 774.388Z" fill="#78359F"/>
<path d="M1353.96 797.416L1337.79 769.096C1321.73 740.932 1289.39 684.292 1265.37 621.842C1241.21 559.496 1225.29 490.923 1193.21 434.334C1161.26 377.641 1113.07 332.514 1054.19 295.395C995.302 258.276 925.497 228.85 884.334 178.856C843.315 128.757 830.566 57.8805 807.702 -5.407C784.837 -68.6945 751.629 -124.707 734.994 -152.452L718.39 -180.458L1074.27 -439L1093.32 -412.773C1112.26 -386.703 1150.37 -334.249 1188.36 -281.952C1226.36 -229.655 1264.46 -177.202 1302.46 -124.905C1340.45 -72.6078 1378.56 -20.1539 1416.55 32.143C1454.54 84.4399 1492.65 136.894 1530.64 189.191C1568.63 241.488 1606.74 293.941 1644.74 346.238C1682.73 398.535 1720.84 450.989 1739.77 477.059L1758.83 503.286L1353.96 797.416Z" fill="#7A35A4"/>
<path d="M1443.29 732.519L1419.63 709.642C1396.22 686.817 1348.89 641.062 1298.65 597.662C1248.41 554.262 1195.03 512.904 1168.57 452.233C1142.1 391.562 1142.32 311.266 1103.46 259.597C1064.46 208.033 986.011 184.887 925.253 149.128C864.351 113.475 821.057 64.7888 793.15 5.16488C765.242 -54.4591 752.493 -125.335 746.377 -160.721L740.002 -196.159L1074.27 -439L1093.32 -412.773C1112.26 -386.703 1150.37 -334.249 1188.36 -281.952C1226.36 -229.655 1264.46 -177.202 1302.46 -124.905C1340.45 -72.6078 1378.56 -20.1539 1416.55 32.143C1454.54 84.4398 1492.65 136.894 1530.64 189.191C1568.63 241.487 1606.74 293.941 1644.74 346.238C1682.73 398.535 1720.84 450.989 1739.77 477.059L1758.83 503.286L1443.29 732.519Z" fill="#7D34A9"/>
<path d="M1384.22 775.435L1385.77 734.24C1387.58 693.097 1390.68 610.707 1357.01 555.27C1323.34 499.833 1252.67 471.035 1197.53 431.194C1142.53 391.248 1102.99 339.841 1066.14 286.707C1029.45 233.468 995.088 178.293 974.96 113.016C954.689 47.8448 948.28 -27.6371 925.127 -90.7152C902.118 -153.898 861.994 -204.887 842.19 -230.328L822.128 -255.823L1074.27 -439L1093.32 -412.773C1112.26 -386.703 1150.37 -334.249 1188.36 -281.952C1226.36 -229.655 1264.46 -177.202 1302.46 -124.905C1340.45 -72.6078 1378.56 -20.1539 1416.55 32.143C1454.54 84.4399 1492.65 136.894 1530.64 189.191C1568.63 241.488 1606.74 293.941 1644.73 346.238C1682.73 398.535 1720.84 450.989 1739.77 477.059L1758.83 503.286L1384.22 775.435Z" fill="#8033AE"/>
<path d="M1427.44 744.033L1409.4 717.073C1391.32 690.375 1355.23 636.456 1321.99 580.705C1288.76 524.954 1258.43 466.848 1236.72 402.723C1215.01 338.598 1201.97 267.931 1175.93 206.946C1149.9 145.962 1110.93 94.1358 1063.57 48.6427C1016.21 3.14952 960.239 -36.325 912.448 -81.5041C864.657 -126.683 824.533 -177.672 804.729 -203.114L784.667 -228.608L1074.27 -439L1093.32 -412.773C1112.26 -386.703 1150.37 -334.249 1188.36 -281.952C1226.36 -229.655 1264.46 -177.202 1302.46 -124.905C1340.45 -72.6078 1378.56 -20.1539 1416.55 32.143C1454.54 84.4398 1492.65 136.894 1530.64 189.191C1568.63 241.487 1606.74 293.941 1644.73 346.238C1682.73 398.535 1720.84 450.989 1739.77 477.059L1758.83 503.286L1427.44 744.033Z" fill="#8332B3"/>
<path d="M1541.27 661.342L1512.85 641.918C1484.54 622.652 1427.71 583.806 1392.16 529.729C1356.47 475.758 1342 406.138 1316.25 344.944C1290.5 283.75 1253.26 230.668 1201.58 188.315C1149.9 145.962 1083.55 114.024 1039.22 66.3324C995.032 18.5364 972.774 -45.4315 949.909 -108.719C927.044 -172.007 903.345 -234.928 891.61 -266.231L879.76 -297.692L1074.27 -439L1093.32 -412.773C1112.26 -386.703 1150.37 -334.249 1188.36 -281.952C1226.36 -229.655 1264.46 -177.202 1302.46 -124.905C1340.45 -72.6078 1378.56 -20.1539 1416.55 32.143C1454.54 84.4398 1492.65 136.894 1530.64 189.191C1568.63 241.487 1606.74 293.941 1644.74 346.238C1682.73 398.535 1720.84 450.989 1739.77 477.059L1758.83 503.286L1541.27 661.342Z" fill="#8530B7"/>
<path d="M1523.98 673.902L1516.16 639.511C1508.6 605.172 1492.97 536.389 1459.59 480.743C1426.21 425.096 1374.56 382.482 1331.09 334.162C1287.62 285.843 1251.82 231.714 1213.68 179.522C1175.4 127.435 1134.41 77.0742 1102.62 20.2764C1070.96 -36.626 1048.13 -100.175 1008.26 -151.111C968.395 -202.048 910.982 -240.475 882.533 -259.637L853.826 -278.851L1074.27 -439L1093.32 -412.773C1112.26 -386.703 1150.37 -334.249 1188.36 -281.952C1226.36 -229.655 1264.46 -177.202 1302.46 -124.905C1340.45 -72.6078 1378.56 -20.1539 1416.55 32.143C1454.54 84.4399 1492.65 136.894 1530.64 189.191C1568.63 241.488 1606.74 293.941 1644.74 346.238C1682.73 398.535 1720.84 450.989 1739.77 477.059L1758.83 503.286L1523.98 673.902Z" fill="#882FBC"/>
<path d="M1588.81 626.8L1564.72 604.236C1540.73 581.83 1492.54 536.703 1460.02 480.429C1427.65 424.05 1410.58 356.313 1379.79 298.783C1349 241.252 1304.27 193.613 1262.38 144.143C1220.5 94.672 1181.53 42.8461 1138.92 -6.1012C1096.32 -55.0485 1050.14 -101.641 1016.19 -156.868C982.227 -212.096 960.545 -276.483 949.674 -308.414L938.833 -340.608L1074.27 -439L1093.32 -412.773C1112.26 -386.703 1150.37 -334.249 1188.36 -281.952C1226.36 -229.656 1264.46 -177.202 1302.46 -124.905C1340.45 -72.6079 1378.56 -20.1539 1416.55 32.1429C1454.54 84.4398 1492.65 136.894 1530.64 189.191C1568.63 241.487 1606.74 293.941 1644.74 346.238C1682.73 398.535 1720.84 450.989 1739.77 477.059L1758.83 503.286L1588.81 626.8Z" fill="#8B2EC1"/>
<path d="M1643.56 587.024L1623.36 561.635C1603.12 536.507 1562.71 485.728 1525.44 432.907C1488.16 380.087 1453.8 324.912 1415.09 273.138C1376.38 221.365 1333.08 172.679 1287.31 126.034C1241.68 79.2852 1193.49 34.1584 1150.16 -14.2656C1106.98 -62.7942 1068.3 -114.829 1038.95 -173.407C1009.6 -231.984 989.361 -297.417 979.211 -329.872L969.09 -362.589L1074.27 -439L1093.32 -412.773C1112.26 -386.703 1150.37 -334.249 1188.36 -281.952C1226.36 -229.655 1264.46 -177.202 1302.46 -124.905C1340.45 -72.6078 1378.56 -20.1539 1416.55 32.143C1454.54 84.4399 1492.65 136.894 1530.64 189.191C1568.63 241.488 1606.74 293.941 1644.74 346.238C1682.73 398.535 1720.84 450.989 1739.77 477.059L1758.83 503.286L1643.56 587.024Z" fill="#8E2CC6"/>
<path d="M1659.41 575.51L1647.56 544.049C1635.83 512.746 1612.13 449.825 1571.54 399.412C1530.81 349.104 1473.11 310.885 1434.11 259.321C1395.11 207.757 1374.87 142.324 1342.78 85.7354C1310.84 29.0423 1266.97 -19.2248 1227.82 -70.6842C1188.53 -122.039 1153.88 -177.005 1119.2 -231.709C1084.52 -286.414 1049.88 -341.38 1032.52 -368.601L1015.2 -396.084L1074.27 -439L1093.32 -412.773C1112.26 -386.703 1150.37 -334.249 1188.36 -281.952C1226.36 -229.655 1264.46 -177.202 1302.46 -124.905C1340.45 -72.6078 1378.56 -20.1539 1416.55 32.143C1454.54 84.4398 1492.65 136.894 1530.64 189.191C1568.63 241.487 1606.74 293.941 1644.74 346.238C1682.73 398.535 1720.84 450.989 1739.77 477.059L1758.83 503.286L1659.41 575.51Z" fill="#902BCB"/>
<path d="M1715.6 534.688L1694.39 510.031C1673.29 485.531 1630.86 436.217 1591.86 384.653C1553 332.984 1517.2 278.856 1479.78 226.14C1442.22 173.529 1402.67 122.122 1367.85 67.5224C1332.88 13.0274 1302.56 -45.0788 1264.99 -97.6897C1227.43 -150.301 1182.7 -197.94 1138.22 -245.526C1093.75 -293.113 1049.3 -340.961 1027.33 -364.833L1005.11 -388.757L1074.27 -439L1093.32 -412.773C1112.26 -386.703 1150.37 -334.249 1188.36 -281.952C1226.36 -229.655 1264.46 -177.201 1302.46 -124.905C1340.45 -72.6078 1378.56 -20.1538 1416.55 32.143C1454.54 84.4399 1492.65 136.894 1530.64 189.191C1568.63 241.488 1606.74 293.941 1644.74 346.238C1682.73 398.535 1720.84 450.989 1739.77 477.059L1758.83 503.286L1715.6 534.688Z" fill="#9329D0"/>
</g>
<defs>
<clipPath id="clip0_228_122">
<rect width="1366" height="768" fill="white"/>
</clipPath>
</defs>
</svg>
