<svg id="visual" viewBox="0 0 900 600" width="900" height="600" xmlns="http://www.w3.org/2000/svg" xmlns:xlink="http://www.w3.org/1999/xlink" version="1.1"><rect x="0" y="0" width="900" height="600" fill="#fff"></rect><path d="M0 96L25 94.3C50 92.7 100 89.3 150 92C200 94.7 250 103.3 300 108.8C350 114.3 400 116.7 450 110.8C500 105 550 91 600 84.2C650 77.3 700 77.7 750 86.3C800 95 850 112 875 120.5L900 129L900 601L875 601C850 601 800 601 750 601C700 601 650 601 600 601C550 601 500 601 450 601C400 601 350 601 300 601C250 601 200 601 150 601C100 601 50 601 25 601L0 601Z" fill="#9e4de4"></path><path d="M0 159L25 159.5C50 160 100 161 150 157.5C200 154 250 146 300 145.8C350 145.7 400 153.3 450 155C500 156.7 550 152.3 600 143.8C650 135.3 700 122.7 750 123.2C800 123.7 850 137.3 875 144.2L900 151L900 601L875 601C850 601 800 601 750 601C700 601 650 601 600 601C550 601 500 601 450 601C400 601 350 601 300 601C250 601 200 601 150 601C100 601 50 601 25 601L0 601Z" fill="#9b4ae1"></path><path d="M0 196L25 189.2C50 182.3 100 168.7 150 170.8C200 173 250 191 300 189.8C350 188.7 400 168.3 450 156.5C500 144.7 550 141.3 600 150.5C650 159.7 700 181.3 750 190C800 198.7 850 194.3 875 192.2L900 190L900 601L875 601C850 601 800 601 750 601C700 601 650 601 600 601C550 601 500 601 450 601C400 601 350 601 300 601C250 601 200 601 150 601C100 601 50 601 25 601L0 601Z" fill="#9747dd"></path><path d="M0 194L25 203.3C50 212.7 100 231.3 150 242.2C200 253 250 256 300 253.2C350 250.3 400 241.7 450 239.8C500 238 550 243 600 241.7C650 240.3 700 232.7 750 226.7C800 220.7 850 216.3 875 214.2L900 212L900 601L875 601C850 601 800 601 750 601C700 601 650 601 600 601C550 601 500 601 450 601C400 601 350 601 300 601C250 601 200 601 150 601C100 601 50 601 25 601L0 601Z" fill="#9444da"></path><path d="M0 244L25 252.2C50 260.3 100 276.7 150 284C200 291.3 250 289.7 300 287.2C350 284.7 400 281.3 450 273C500 264.7 550 251.3 600 249.7C650 248 700 258 750 262.5C800 267 850 266 875 265.5L900 265L900 601L875 601C850 601 800 601 750 601C700 601 650 601 600 601C550 601 500 601 450 601C400 601 350 601 300 601C250 601 200 601 150 601C100 601 50 601 25 601L0 601Z" fill="#9141d6"></path><path d="M0 292L25 293C50 294 100 296 150 292.8C200 289.7 250 281.3 300 279.2C350 277 400 281 450 290.2C500 299.3 550 313.7 600 312.5C650 311.3 700 294.7 750 285.3C800 276 850 274 875 273L900 272L900 601L875 601C850 601 800 601 750 601C700 601 650 601 600 601C550 601 500 601 450 601C400 601 350 601 300 601C250 601 200 601 150 601C100 601 50 601 25 601L0 601Z" fill="#8e3ed3"></path><path d="M0 361L25 354.2C50 347.3 100 333.7 150 326C200 318.3 250 316.7 300 325C350 333.3 400 351.7 450 359.2C500 366.7 550 363.3 600 355.8C650 348.3 700 336.7 750 331.5C800 326.3 850 327.7 875 328.3L900 329L900 601L875 601C850 601 800 601 750 601C700 601 650 601 600 601C550 601 500 601 450 601C400 601 350 601 300 601C250 601 200 601 150 601C100 601 50 601 25 601L0 601Z" fill="#8a3bcf"></path><path d="M0 374L25 371.7C50 369.3 100 364.7 150 367.5C200 370.3 250 380.7 300 386.5C350 392.3 400 393.7 450 395.2C500 396.7 550 398.3 600 391.7C650 385 700 370 750 371.5C800 373 850 391 875 400L900 409L900 601L875 601C850 601 800 601 750 601C700 601 650 601 600 601C550 601 500 601 450 601C400 601 350 601 300 601C250 601 200 601 150 601C100 601 50 601 25 601L0 601Z" fill="#8738cc"></path><path d="M0 424L25 423.5C50 423 100 422 150 427.2C200 432.3 250 443.7 300 446.7C350 449.7 400 444.3 450 436.5C500 428.7 550 418.3 600 414.8C650 411.3 700 414.7 750 419.3C800 424 850 430 875 433L900 436L900 601L875 601C850 601 800 601 750 601C700 601 650 601 600 601C550 601 500 601 450 601C400 601 350 601 300 601C250 601 200 601 150 601C100 601 50 601 25 601L0 601Z" fill="#8435c9"></path><path d="M0 470L25 471.2C50 472.3 100 474.7 150 471.8C200 469 250 461 300 459.5C350 458 400 463 450 469.8C500 476.7 550 485.3 600 484.5C650 483.7 700 473.3 750 466.7C800 460 850 457 875 455.5L900 454L900 601L875 601C850 601 800 601 750 601C700 601 650 601 600 601C550 601 500 601 450 601C400 601 350 601 300 601C250 601 200 601 150 601C100 601 50 601 25 601L0 601Z" fill="#8132c6"></path><path d="M0 514L25 509.5C50 505 100 496 150 494.2C200 492.3 250 497.7 300 501.2C350 504.7 400 506.3 450 508.3C500 510.3 550 512.7 600 509.2C650 505.7 700 496.3 750 493.5C800 490.7 850 494.3 875 496.2L900 498L900 601L875 601C850 601 800 601 750 601C700 601 650 601 600 601C550 601 500 601 450 601C400 601 350 601 300 601C250 601 200 601 150 601C100 601 50 601 25 601L0 601Z" fill="#7e2fc2"></path><path d="M0 539L25 540.2C50 541.3 100 543.7 150 547.2C200 550.7 250 555.3 300 553.3C350 551.3 400 542.7 450 538.2C500 533.7 550 533.3 600 539.3C650 545.3 700 557.7 750 563.3C800 569 850 568 875 567.5L900 567L900 601L875 601C850 601 800 601 750 601C700 601 650 601 600 601C550 601 500 601 450 601C400 601 350 601 300 601C250 601 200 601 150 601C100 601 50 601 25 601L0 601Z" fill="#7b2cbf"></path></svg>